<?xml version="1.0"?>
<svg xmlns="http://www.w3.org/2000/svg" xmlns:xlink="http://www.w3.org/1999/xlink" xmlns:svgjs="http://svgjs.com/svgjs" version="1.1" width="512" height="512" x="0" y="0" viewBox="0 0 512 512" style="enable-background:new 0 0 512 512" xml:space="preserve" class=""><g><g xmlns="http://www.w3.org/2000/svg"><g><path d="m256 241c-32.999 0-60 26.999-60 60 0 32.999 27.001 60 60 60s60-27.001 60-60c0-33.001-27.001-60-60-60z" fill="#fc6767" data-original="#7ed8f6" style="" class=""/></g><g><path d="m269.2 38.202c-2.701-4.801-7.8-7.202-13.2-7.202s-10.499 2.401-13.2 7.202c-7.8 13.798-46.8 85.497-46.8 112.798 0 32.999 27.001 60 60 60s60-27.001 60-60c0-27.301-39-99-46.8-112.798z" fill="#fc6767" data-original="#7ed8f6" style="" class=""/></g><g><path d="m512 376c0 68.099-132.4 105-256 105s-256-36.901-256-105c0-43.2 56.201-78.9 148.599-95.7 8.101-1.5 15.901 3.9 17.401 11.999 1.5 8.101-3.9 15.901-12.001 17.401-84.598 15.6-123.999 45.3-123.999 66.3 0 35.4 97.301 75 226 75s226-39.6 226-75c0-21-39.401-50.7-123.999-66.301-8.101-1.5-13.5-9.3-12.001-17.401 1.5-8.099 9.6-13.499 17.401-11.999 92.398 16.801 148.599 52.501 148.599 95.701z" fill="#f7d1d1" data-original="#ecf2ff" style="" class=""/></g><g><path d="m349.9 337.299c-8.101-.899-15.901 4.501-17.1 12.601-1.199 8.099 4.501 15.899 12.599 17.1 19.501 2.999 31.201 6.299 38.101 9-18.6 6.899-62.1 15-127.5 15s-108.9-8.101-127.5-15c6.899-2.701 18.6-6 38.101-9 8.099-1.201 13.799-9.001 12.599-17.1-1.199-8.101-9-13.5-17.1-12.601-49.201 7.8-71.1 19.501-71.1 38.701 0 41.7 126.301 45 165 45s165-3.3 165-45c0-19.2-21.899-30.901-71.1-38.701z" fill="#f7d1d1" data-original="#ecf2ff" style="" class=""/></g><path d="m256 361v-120c32.999 0 60 26.999 60 60 0 32.999-27.001 60-60 60z" fill="#ec008c" data-original="#6aa9ff" style="" class=""/><path d="m256 211v-180c5.4 0 10.499 2.401 13.2 7.202 7.8 13.798 46.8 85.497 46.8 112.798 0 32.999-27.001 60-60 60z" fill="#ec008c" data-original="#6aa9ff" style="" class=""/><g fill="#d9e5ff"><path d="m256 421v-30c65.4 0 108.9-8.101 127.5-15-6.899-2.701-18.6-6-38.101-9-8.099-1.201-13.799-9.001-12.599-17.1 1.199-8.101 9-13.5 17.1-12.601 49.2 7.8 71.1 19.501 71.1 38.701 0 41.7-126.301 45-165 45z" fill="#ebb7c6" data-original="#d9e5ff" style="" class=""/><path d="m512 376c0 68.099-132.4 105-256 105v-30c128.699 0 226-39.6 226-75 0-21-39.401-50.7-123.999-66.301-8.101-1.5-13.5-9.3-12.001-17.401 1.5-8.099 9.6-13.499 17.401-11.999 92.398 16.801 148.599 52.501 148.599 95.701z" fill="#ebb7c6" data-original="#d9e5ff" style="" class=""/></g></g></g></svg>
