<?xml version="1.0"?>
<svg xmlns="http://www.w3.org/2000/svg" xmlns:xlink="http://www.w3.org/1999/xlink" xmlns:svgjs="http://svgjs.com/svgjs" version="1.1" width="512" height="512" x="0" y="0" viewBox="0 0 512 512" style="enable-background:new 0 0 512 512" xml:space="preserve" class=""><g><linearGradient xmlns="http://www.w3.org/2000/svg" id="SVGID_1_" gradientUnits="userSpaceOnUse" x1="256" x2="256" y1="0" y2="512"><stop stop-opacity="1" stop-color="#ec008c" offset="0"/><stop stop-opacity="1" stop-color="#fc6767" offset="1"/></linearGradient><path xmlns="http://www.w3.org/2000/svg" d="m512 256c0 68.38-26.629 132.667-74.98 181.02-48.353 48.351-112.64 74.98-181.02 74.98-47.869 0-93.723-13.066-133.518-37.482l29.35-29.35c30.91 17.088 66.42 26.832 104.168 26.832 119.103 0 216-96.897 216-216 0-37.748-9.744-73.258-26.833-104.167l29.351-29.35c24.416 39.794 37.482 85.648 37.482 133.517zm-482.858 255.142-28.284-28.284 60.528-60.528c-39.719-46.325-61.386-104.661-61.386-166.33 0-68.38 26.629-132.667 74.98-181.02 48.353-48.351 112.64-74.98 181.02-74.98 61.669 0 120.005 21.667 166.33 61.386l60.528-60.528 28.284 28.284zm60.711-117.28 304.009-304.009c-37.431-31.114-85.497-49.853-137.862-49.853-119.103 0-216 96.897-216 216 0 52.365 18.738 100.431 49.853 137.862z" fill="url(#SVGID_1_)" data-original="url(#SVGID_1_)" style=""/></g></svg>
